<svg xmlns="http://www.w3.org/2000/svg" width="20" height="20" viewBox="0 0 350 350">
	<path d="M158.726,204.076c47.096,0,79.363-34.126,79.363-79.363v-45.35C238.089,34.126,205.822,0,158.726,0
		S79.363,34.126,79.363,79.363v45.35C79.363,169.95,111.63,204.076,158.726,204.076z M102.038,79.363
		c0-31.859,23.537-56.688,56.688-56.688s56.688,24.829,56.688,56.688v45.35c0,31.859-23.537,56.688-56.688,56.688
		s-56.688-24.829-56.688-56.688V79.363z M239.245,169.928l-2.812-0.93l-1.383,2.517c-2.88,5.215-6.349,10.272-10.294,15.034
		l-3.243,3.9l4.989,1.361c36.643,10.09,65.962,66.96,67.481,103.036H23.446c1.519-36.099,27.505-92.945,64.148-103.036
		l4.989-1.361l-3.22-3.9c-3.968-4.784-7.437-9.841-10.295-15.056l-1.406-2.517l-2.789,0.952C28.979,185.143,0,248.361,0,294.845
		v22.607h317.452v-22.607C317.452,248.361,285.117,185.143,239.245,169.928z"/>
</svg>
